<?xml version="1.0" encoding="UTF-8"?>
<svg id="Layer_1" data-name="Layer 1" xmlns="http://www.w3.org/2000/svg" viewBox="0 0 841.89 595.28">
  <defs>
    <style>
      .cls-1 {
        fill: navy;
      }
    </style>
  </defs>
  <g>
    <g>
      <g>
        <path class="cls-1" d="M573.68,264.24v13.32c3.46-.15,6.79-.94,9.87-2.34-2.26-6.08-5.84-10.3-9.87-10.98Z"/>
        <path class="cls-1" d="M554.03,270.1c1.63,1.6,3.45,2.94,5.39,4.04,1.83-4.85,4.5-8.58,7.67-10.59-4.98,.99-9.47,3.3-13.07,6.55Z"/>
        <path class="cls-1" d="M577.98,263.55c3.17,2.01,5.84,5.74,7.67,10.59,1.94-1.11,3.76-2.44,5.39-4.04-3.6-3.25-8.09-5.56-13.07-6.55Z"/>
        <path class="cls-1" d="M559.07,290.96c.1,4.05,.71,7.89,1.72,11.28,3.31-1.47,6.89-2.31,10.61-2.45v-8.83h-12.33Z"/>
        <path class="cls-1" d="M561.51,304.4c2.25,6.11,5.85,10.36,9.89,11.04v-13.39c-3.47,.15-6.81,.95-9.89,2.35Z"/>
        <path class="cls-1" d="M592.66,271.68c-1.89,1.85-4,3.4-6.26,4.64,1.12,3.68,1.79,7.89,1.89,12.4h11.57c-.27-6.56-2.95-12.52-7.19-17.04Z"/>
        <path class="cls-1" d="M552.42,271.68c-4.24,4.52-6.92,10.48-7.2,17.04h11.57c.1-4.51,.77-8.72,1.89-12.4-2.27-1.24-4.38-2.79-6.26-4.64Z"/>
        <path class="cls-1" d="M560.81,277.38c-1.02,3.41-1.64,7.27-1.74,11.35h12.33v-8.9c-3.71-.14-7.29-.98-10.59-2.44Z"/>
        <path class="cls-1" d="M561.53,275.22c3.07,1.4,6.4,2.19,9.87,2.34v-13.32c-4.03,.68-7.61,4.9-9.87,10.98Z"/>
        <path class="cls-1" d="M556.79,290.96h-11.57c.27,6.55,2.94,12.49,7.16,17,1.89-1.86,4.01-3.42,6.28-4.67-1.11-3.67-1.78-7.85-1.87-12.34Z"/>
        <path class="cls-1" d="M588.28,290.96c-.1,4.49-.76,8.67-1.87,12.34,2.27,1.24,4.38,2.8,6.27,4.65h.02c4.22-4.5,6.88-10.44,7.16-16.99h-11.57Z"/>
        <path class="cls-1" d="M591.07,309.53c-1.63-1.6-3.45-2.94-5.39-4.05-1.83,4.88-4.51,8.63-7.69,10.65,5-.99,9.5-3.32,13.11-6.58l-.02-.02Z"/>
        <path class="cls-1" d="M584.27,277.38c-3.3,1.46-6.88,2.3-10.59,2.44v8.9h12.33c-.1-4.08-.72-7.94-1.74-11.35Z"/>
        <path class="cls-1" d="M559.4,305.48c-1.95,1.11-3.78,2.46-5.41,4.06,3.61,3.27,8.11,5.6,13.1,6.59-3.18-2.02-5.86-5.77-7.69-10.65Z"/>
        <path class="cls-1" d="M573.68,302.05v13.39c4.04-.68,7.63-4.93,9.89-11.04-3.08-1.4-6.42-2.21-9.89-2.35Z"/>
        <path class="cls-1" d="M573.68,290.96v8.83c3.71,.14,7.3,.98,10.61,2.45,1.01-3.39,1.62-7.23,1.72-11.28h-12.33Z"/>
      </g>
      <g>
        <path class="cls-1" d="M239.94,311.59l-8.49,6.57,8.51-6.54-.03-.03Zm56.82,3.08c-7.23,6.82-17.08,11.02-27.19,11.02-7.98,0-15.39-2.4-21.45-6.52l-8.82,6.77c8.11,6.34,18.42,10.11,29.74,10.11,12.73,0,25.09-5.63,34.13-14.17l-6.42-7.2Zm-27.31-71.3c-10.48,0-20.14,3.16-27.99,8.56l7.33,7.33c5.94-3.84,13.09-6.04,20.79-6.04,10.11,0,20.09,4.32,27.19,11.55l6.29-8.01c-8.79-8.26-21-13.39-33.6-13.39Z"/>
        <path class="cls-1" d="M372.53,243.62v54.09c0,17.86-10.48,28.22-27.94,28.22s-28.22-10.36-28.22-28.22v-54.09h-10.51v54.09c0,23.9,14.58,38.33,38.73,38.33s38.45-14.43,38.45-38.33v-54.09h-10.51Z"/>
        <path class="cls-1" d="M405.14,325.56v-81.93h-10.51v91.91h50.81v-9.98h-40.3Z"/>
        <path class="cls-1" d="M512.42,318.33c-7.07,4.85-15.87,7.76-24.15,7.76-21,0-37.92-16.17-37.92-36.51s16.8-36.36,37.8-36.36c10.23,0,20.36,3.94,27.84,10.64l6.04-7.88c-8.79-7.76-21.15-12.61-33.88-12.61-27.03,0-48.43,20.34-48.43,46.21s21.27,46.46,47.9,46.46c12.35,0,25.09-4.85,34.13-12.08v-33.32h-9.32v27.69Z"/>
        <path class="cls-1" d="M601.17,253.2l-5.25,8.62c14.05,11.5,18.19,31.53,8.59,47.25-9.6,15.71-29.36,21.3-46.01,14.1l-5.33,8.72c21.98,10.43,47.95,3.39,60.53-17.21,12.56-20.62,6.82-46.71-12.53-61.47Zm-69.63,11.34c-12.53,20.52-7,46.74,12.28,61.6l5.33-8.72c-13.92-11.57-18.09-31.68-8.51-47.35,9.55-15.66,29.26-21.07,45.91-13.95l5.26-8.62c-22.01-10.41-47.67-3.61-60.26,17.03Z"/>
      </g>
    </g>
    <path class="cls-1" d="M268.23,289.71l-28.3,21.88-8.49,6.57c-.05-.05-.08-.1-.13-.15-.03-.05-.08-.13-.13-.2-6.09-7.83-9.68-17.63-9.68-28.35,0-11.7,4.37-22.26,11.65-30.29l.3,.3,34.76,30.24Z"/>
  </g>
  <path class="cls-1" d="M231.45,318.15h-.03s-.03-.05-.1-.15c.05,.05,.08,.1,.13,.15Z"/>
</svg>